<svg width="1800" height="1400" viewBox="0 0 1800 1400" fill="none" xmlns="http://www.w3.org/2000/svg">
  <defs>
    <linearGradient id="bg" x1="0" y1="0" x2="1800" y2="1400" gradientUnits="userSpaceOnUse">
      <stop stop-color="#090704"/>
      <stop offset=".45" stop-color="#11100C"/>
      <stop offset="1" stop-color="#05070D"/>
    </linearGradient>
    <linearGradient id="filmA" x1="0" y1="0" x2="0" y2="1">
      <stop stop-color="#3A2419"/>
      <stop offset=".36" stop-color="#355D63"/>
      <stop offset=".72" stop-color="#21100A"/>
      <stop offset="1" stop-color="#05070D"/>
    </linearGradient>
    <linearGradient id="filmB" x1="0" y1="0" x2="0" y2="1">
      <stop stop-color="#25140E"/>
      <stop offset=".42" stop-color="#1E5C65"/>
      <stop offset=".76" stop-color="#160C08"/>
      <stop offset="1" stop-color="#05070D"/>
    </linearGradient>
    <linearGradient id="paper" x1="0" y1="0" x2="1" y2="1">
      <stop stop-color="#F0E0BA"/>
      <stop offset="1" stop-color="#C7AA72"/>
    </linearGradient>
    <linearGradient id="leak" x1="0" y1="0" x2="1" y2="1">
      <stop stop-color="#FF6F61" stop-opacity=".75"/>
      <stop offset=".55" stop-color="#F2A93B" stop-opacity=".22"/>
      <stop offset="1" stop-color="#F2A93B" stop-opacity="0"/>
    </linearGradient>
    <style>
      .h1 { font: 900 54px Avenir Next, Arial, sans-serif; fill: #F5F0E6; letter-spacing: 0; }
      .h2 { font: 900 28px Avenir Next, Arial, sans-serif; fill: #F5F0E6; letter-spacing: 0; }
      .body { font: 700 18px Avenir Next, Arial, sans-serif; fill: rgba(245,240,230,.72); letter-spacing: 0; }
      .small { font: 800 13px Avenir Next, Arial, sans-serif; fill: rgba(245,240,230,.62); letter-spacing: 0; }
      .stamp { font: 900 13px Avenir Next, Arial, sans-serif; fill: #E7D8B9; letter-spacing: 0; }
      .paperText { font: 900 16px Avenir Next, Arial, sans-serif; fill: #1A0F0A; letter-spacing: 0; }
      .cyan { fill: #39D9F2; }
      .lime { fill: #C7F95B; }
    </style>
  </defs>

  <rect width="1800" height="1400" fill="url(#bg)"/>
  <rect x="70" y="60" width="1660" height="150" rx="8" fill="rgba(231,216,185,.06)" stroke="rgba(231,216,185,.16)"/>
  <text x="110" y="124" class="stamp">REPORT #3 / ANALOG FILM DIRECTION</text>
  <text x="110" y="180" class="h1">Make Happened feel like memories developed at the place.</text>

  <g transform="translate(90 270)">
    <text x="0" y="-22" class="h2">Home: open memory</text>
    <rect width="360" height="760" rx="44" fill="#05070D" stroke="rgba(231,216,185,.28)" stroke-width="2"/>
    <rect x="18" y="18" width="324" height="724" rx="30" fill="url(#filmA)"/>
    <rect x="29" y="96" width="302" height="542" rx="10" fill="rgba(26,15,10,.86)"/>
    <rect x="48" y="116" width="264" height="500" rx="6" fill="rgba(231,216,185,.06)" stroke="rgba(231,216,185,.52)" stroke-width="2"/>
    <rect x="20" y="88" width="24" height="560" rx="5" fill="rgba(26,15,10,.92)"/>
    <rect x="316" y="88" width="24" height="560" rx="5" fill="rgba(26,15,10,.72)"/>
    <g fill="#E7D8B9" opacity=".88">
      <rect x="27" y="122" width="10" height="24" rx="3"/><rect x="27" y="168" width="10" height="24" rx="3"/><rect x="27" y="214" width="10" height="24" rx="3"/><rect x="27" y="260" width="10" height="24" rx="3"/><rect x="27" y="306" width="10" height="24" rx="3"/><rect x="27" y="352" width="10" height="24" rx="3"/><rect x="27" y="398" width="10" height="24" rx="3"/><rect x="27" y="444" width="10" height="24" rx="3"/><rect x="27" y="490" width="10" height="24" rx="3"/><rect x="27" y="536" width="10" height="24" rx="3"/><rect x="27" y="582" width="10" height="24" rx="3"/>
      <rect x="323" y="122" width="10" height="24" rx="3" opacity=".74"/><rect x="323" y="168" width="10" height="24" rx="3" opacity=".74"/><rect x="323" y="214" width="10" height="24" rx="3" opacity=".74"/><rect x="323" y="260" width="10" height="24" rx="3" opacity=".74"/><rect x="323" y="306" width="10" height="24" rx="3" opacity=".74"/><rect x="323" y="352" width="10" height="24" rx="3" opacity=".74"/><rect x="323" y="398" width="10" height="24" rx="3" opacity=".74"/><rect x="323" y="444" width="10" height="24" rx="3" opacity=".74"/><rect x="323" y="490" width="10" height="24" rx="3" opacity=".74"/><rect x="323" y="536" width="10" height="24" rx="3" opacity=".74"/><rect x="323" y="582" width="10" height="24" rx="3" opacity=".74"/>
    </g>
    <rect x="58" y="132" width="70" height="50" rx="4" fill="rgba(26,15,10,.68)" stroke="rgba(231,216,185,.34)"/>
    <rect x="144" y="132" width="70" height="50" rx="4" fill="rgba(26,15,10,.42)" stroke="rgba(231,216,185,.34)"/>
    <rect x="230" y="132" width="70" height="50" rx="4" fill="rgba(26,15,10,.68)" stroke="rgba(231,216,185,.34)"/>
    <rect x="238" y="38" width="120" height="370" fill="url(#leak)" transform="rotate(14 238 38)"/>
    <text x="58" y="116" class="stamp">HAPPENED 400</text>
    <text x="202" y="116" class="stamp">APR 2023 / ISO 400</text>
    <rect x="58" y="480" width="154" height="34" rx="4" fill="url(#paper)" transform="rotate(-1 58 480)"/>
    <text x="73" y="503" class="paperText">APR 2023 / ISO 400</text>
    <rect x="58" y="526" width="168" height="30" rx="15" fill="#C7F95B"/>
    <text x="78" y="546" font-family="Avenir Next, Arial" font-size="11" font-weight="900" fill="#05070D">Open here · 84m / 200m</text>
    <text x="58" y="603" font-family="Avenir Next, Arial" font-size="34" font-weight="900" fill="#F5F0E6">Seolleung</text>
    <text x="58" y="642" font-family="Avenir Next, Arial" font-size="34" font-weight="900" fill="#F5F0E6">Station Cafe</text>
    <text x="58" y="674" class="small">Rain on the glass, three years later.</text>
  </g>

  <g transform="translate(530 270)">
    <text x="0" y="-22" class="h2">Home: locked preview</text>
    <rect width="360" height="760" rx="44" fill="#05070D" stroke="rgba(231,216,185,.28)" stroke-width="2"/>
    <rect x="18" y="18" width="324" height="724" rx="30" fill="url(#filmB)"/>
    <rect x="29" y="96" width="302" height="542" rx="10" fill="rgba(26,15,10,.88)"/>
    <rect x="48" y="116" width="264" height="500" rx="6" fill="rgba(231,216,185,.05)" stroke="rgba(231,216,185,.46)" stroke-width="2"/>
    <rect x="20" y="88" width="24" height="560" rx="5" fill="rgba(26,15,10,.94)"/>
    <g fill="#E7D8B9" opacity=".88">
      <rect x="27" y="122" width="10" height="24" rx="3"/><rect x="27" y="168" width="10" height="24" rx="3"/><rect x="27" y="214" width="10" height="24" rx="3"/><rect x="27" y="260" width="10" height="24" rx="3"/><rect x="27" y="306" width="10" height="24" rx="3"/><rect x="27" y="352" width="10" height="24" rx="3"/><rect x="27" y="398" width="10" height="24" rx="3"/><rect x="27" y="444" width="10" height="24" rx="3"/><rect x="27" y="490" width="10" height="24" rx="3"/><rect x="27" y="536" width="10" height="24" rx="3"/><rect x="27" y="582" width="10" height="24" rx="3"/>
    </g>
    <rect x="78" y="214" width="214" height="170" rx="8" fill="rgba(5,7,13,.62)" stroke="rgba(231,216,185,.36)" stroke-width="2"/>
    <text x="122" y="285" class="h2">Preview only</text>
    <text x="92" y="328" class="body">Return to this place to</text>
    <text x="104" y="354" class="body">develop the full frame.</text>
    <rect x="62" y="480" width="116" height="34" rx="4" fill="url(#paper)" transform="rotate(1 62 480)"/>
    <text x="78" y="503" class="paperText">PUSH +1</text>
    <rect x="58" y="526" width="204" height="30" rx="15" fill="#FF6F61"/>
    <text x="74" y="546" font-family="Avenir Next, Arial" font-size="11" font-weight="900" fill="#05070D">Locked by place · 1.3km / 200m</text>
    <text x="58" y="603" font-family="Avenir Next, Arial" font-size="33" font-weight="900" fill="#F5F0E6">Hongdae Alley</text>
    <text x="58" y="642" font-family="Avenir Next, Arial" font-size="33" font-weight="900" fill="#F5F0E6">Stage</text>
  </g>

  <g transform="translate(970 270)">
    <text x="0" y="-22" class="h2">Recall: contact sheet</text>
    <rect width="360" height="760" rx="44" fill="#05070D" stroke="rgba(231,216,185,.28)" stroke-width="2"/>
    <rect x="18" y="18" width="324" height="724" rx="30" fill="#0B0A07"/>
    <text x="40" y="72" class="stamp">YOU ARE BACK / CONTACT 03</text>
    <text x="40" y="124" class="h2">3 years ago at Seolleung</text>
    <rect x="40" y="170" width="280" height="360" rx="8" fill="rgba(231,216,185,.08)" stroke="rgba(231,216,185,.28)"/>
    <g>
      <rect x="58" y="198" width="76" height="86" rx="4" fill="url(#filmA)" stroke="rgba(231,216,185,.38)"/>
      <rect x="142" y="198" width="76" height="86" rx="4" fill="rgba(26,15,10,.72)" stroke="rgba(231,216,185,.38)"/>
      <rect x="226" y="198" width="76" height="86" rx="4" fill="url(#filmB)" stroke="rgba(231,216,185,.38)"/>
      <rect x="58" y="300" width="76" height="86" rx="4" fill="rgba(26,15,10,.72)" stroke="rgba(231,216,185,.38)"/>
      <rect x="142" y="300" width="76" height="86" rx="4" fill="url(#filmA)" stroke="rgba(231,216,185,.38)"/>
      <rect x="226" y="300" width="76" height="86" rx="4" fill="rgba(26,15,10,.72)" stroke="rgba(231,216,185,.38)"/>
    </g>
    <rect x="58" y="556" width="244" height="78" rx="8" fill="rgba(199,249,91,.10)" stroke="rgba(199,249,91,.30)"/>
    <text x="78" y="590" class="body">Reopened because you are back</text>
    <text x="78" y="618" class="body">within 200m.</text>
    <rect x="58" y="662" width="116" height="44" rx="8" fill="#E7D8B9"/>
    <text x="94" y="691" class="paperText">Open</text>
  </g>

  <g transform="translate(1380 270)">
    <text x="0" y="-22" class="h2">Visual system</text>
    <rect width="330" height="760" rx="8" fill="rgba(231,216,185,.06)" stroke="rgba(231,216,185,.18)"/>
    <text x="34" y="70" class="stamp">FILM LANGUAGE</text>
    <text x="34" y="126" class="body">The product should feel like</text>
    <text x="34" y="152" class="body">a memory is being developed</text>
    <text x="34" y="178" class="body">when the user returns.</text>
    <rect x="34" y="236" width="262" height="56" rx="4" fill="url(#paper)"/>
    <text x="54" y="271" class="paperText">Paper labels for time + roll</text>
    <rect x="34" y="326" width="262" height="72" rx="6" fill="rgba(26,15,10,.82)" stroke="rgba(231,216,185,.42)"/>
    <text x="54" y="368" class="stamp">Negative frame + sprocket holes</text>
    <rect x="34" y="432" width="262" height="96" rx="6" fill="url(#leak)"/>
    <text x="54" y="486" class="stamp">Warm light leaks</text>
    <rect x="34" y="562" width="76" height="70" rx="4" fill="rgba(26,15,10,.72)" stroke="rgba(231,216,185,.34)"/>
    <rect x="126" y="562" width="76" height="70" rx="4" fill="rgba(26,15,10,.42)" stroke="rgba(231,216,185,.34)"/>
    <rect x="218" y="562" width="76" height="70" rx="4" fill="rgba(26,15,10,.72)" stroke="rgba(231,216,185,.34)"/>
    <text x="34" y="686" class="stamp">Contact-sheet rhythm for recall</text>
  </g>
</svg>
